<svg width="20" height="20" viewBox="0 0 20 20" fill="none" xmlns="http://www.w3.org/2000/svg">
<path d="M17.1829 7.04183C16.3079 3.19183 12.9496 1.4585 9.99959 1.4585C9.99959 1.4585 9.99959 1.4585 9.99126 1.4585C7.04959 1.4585 3.68292 3.1835 2.80792 7.0335C1.83292 11.3335 4.46626 14.9752 6.84959 17.2668C7.73292 18.1168 8.86626 18.5418 9.99959 18.5418C11.1329 18.5418 12.2663 18.1168 13.1413 17.2668C15.5246 14.9752 18.1579 11.3418 17.1829 7.04183ZM9.99959 11.2168C8.54959 11.2168 7.37459 10.0418 7.37459 8.59183C7.37459 7.14183 8.54959 5.96683 9.99959 5.96683C11.4496 5.96683 12.6246 7.14183 12.6246 8.59183C12.6246 10.0418 11.4496 11.2168 9.99959 11.2168Z" fill="#999999"/>
</svg>
