<svg width="28" height="28" viewBox="0 0 28 28" fill="none" xmlns="http://www.w3.org/2000/svg">
<path d="M24.0573 9.85817C22.8323 4.46817 18.1306 2.0415 14.0006 2.0415C14.0006 2.0415 14.0006 2.0415 13.9889 2.0415C9.8706 2.0415 5.15727 4.4565 3.93227 9.8465C2.56727 15.8665 6.25393 20.9648 9.5906 24.1732C10.8273 25.3632 12.4139 25.9582 14.0006 25.9582C15.5873 25.9582 17.1739 25.3632 18.3989 24.1732C21.7356 20.9648 25.4223 15.8782 24.0573 9.85817ZM14.0006 15.7032C11.9706 15.7032 10.3256 14.0582 10.3256 12.0282C10.3256 9.99817 11.9706 8.35317 14.0006 8.35317C16.0306 8.35317 17.6756 9.99817 17.6756 12.0282C17.6756 14.0582 16.0306 15.7032 14.0006 15.7032Z" fill="#999999"/>
</svg>
