<svg width="24" height="24" viewBox="0 0 24 24" fill="none" xmlns="http://www.w3.org/2000/svg">
<path d="M12.1596 10.87C12.0596 10.86 11.9396 10.86 11.8296 10.87C9.44957 10.79 7.55957 8.84 7.55957 6.44C7.55957 3.99 9.53957 2 11.9996 2C14.4496 2 16.4396 3.99 16.4396 6.44C16.4296 8.84 14.5396 10.79 12.1596 10.87Z" stroke="#000D06" stroke-width="2" stroke-linecap="round" stroke-linejoin="round"/>
<path d="M7.1607 15.56C4.7407 17.18 4.7407 19.82 7.1607 21.43C9.9107 23.27 14.4207 23.27 17.1707 21.43C19.5907 19.81 19.5907 17.17 17.1707 15.56C14.4307 13.73 9.9207 13.73 7.1607 15.56Z" stroke="#000D06" stroke-width="2" stroke-linecap="round" stroke-linejoin="round"/>
</svg>
