<svg width="24" height="24" viewBox="0 0 24 24" fill="none" xmlns="http://www.w3.org/2000/svg">
<path d="M12.1601 10.87C12.0601 10.86 11.9401 10.86 11.8301 10.87C9.45006 10.79 7.56006 8.84 7.56006 6.44C7.56006 3.99 9.54006 2 12.0001 2C14.4501 2 16.4401 3.99 16.4401 6.44C16.4301 8.84 14.5401 10.79 12.1601 10.87Z" stroke="#000D06" stroke-width="2" stroke-linecap="round" stroke-linejoin="round"/>
<path d="M7.16021 15.56C4.74021 17.18 4.74021 19.82 7.16021 21.43C9.91021 23.27 14.4202 23.27 17.1702 21.43C19.5902 19.81 19.5902 17.17 17.1702 15.56C14.4302 13.73 9.92021 13.73 7.16021 15.56Z" stroke="#000D06" stroke-width="2" stroke-linecap="round" stroke-linejoin="round"/>
</svg>
